<svg xmlns="http://www.w3.org/2000/svg" version="1.1" xmlns:xlink="http://www.w3.org/1999/xlink" xmlns:svgjs="http://svgjs.dev/svgjs" width="1000" height="133" viewBox="0 0 1000 133"><g transform="matrix(1,0,0,1,-0.6060606060606233,-0.07831498326584097)"><svg viewBox="0 0 396 53" data-background-color="#ffffff" preserveAspectRatio="xMidYMid meet" height="133" width="1000" xmlns="http://www.w3.org/2000/svg" xmlns:xlink="http://www.w3.org/1999/xlink"><g id="tight-bounds" transform="matrix(1,0,0,1,0.2400000000000091,0.03120822641420773)"><svg viewBox="0 0 395.52 52.937583547171606" height="52.937583547171606" width="395.52"><g><svg viewBox="0 0 441.5241862933277 59.094921875" height="52.937583547171606" width="395.52"><g><svg viewBox="0 0 441.5241862933277 59.094921875" height="59.094921875" width="441.5241862933277"><g id="textblocktransform"><svg viewBox="0 0 441.5241862933277 59.094921875" height="59.094921875" width="441.5241862933277" id="textblock"><g><svg viewBox="0 0 441.5241862933277 59.094921875" height="59.094921875" width="441.5241862933277"><g><svg><g></g><g></g></svg></g><g><svg><g></g><g><svg></svg></g></svg></g><g id="text-0"><svg viewBox="0 0 441.5241862933277 59.094921875" height="59.094921875" width="441.5241862933277"><g><svg xmlns="http://www.w3.org/2000/svg" xmlns:xlink="http://www.w3.org/1999/xlink" version="1.1" x="0" y="0" viewBox="0 9.786 100.00034525290006 80.42699999999999" enable-background="new 0 0 100 100" xml:space="preserve" width="73.47672535582772" height="59.094921875" class="icon-g$-0" data-fill-palette-color="accent" id="g$-0"><path d="M49.942 52.994c13.552-0.488 27.103-0.977 40.653-1.465-2.527-4.177-3.159-7.831-7.989-8.461-7.229-0.94-14.458-1.883-21.688-2.826-14.023-1.827-28.05-3.654-42.075-5.48C20.101 36.792 39.724 53.361 49.942 52.994z" fill="#bb84e8" data-fill-palette-color="accent"></path><path d="M0 9.786c4.391 7.257 26.615 23.072 32.953 23.886 17.33 2.231 34.657 4.46 51.986 6.688-3.393-5.607-4.18-9.35-10.312-10.959-8.904-2.341-17.812-4.683-26.717-7.023C31.94 18.182 15.97 13.984 0 9.786z" fill="#bb84e8" data-fill-palette-color="accent"></path><path d="M63.108 66.207c10.413-2.219 20.826-4.439 31.241-6.66-2.028-3.346-2.034-5.359-5.827-5.189-6.158 0.273-12.314 0.549-18.471 0.822-11.343 0.506-22.686 1.014-34.028 1.518C37.298 58.064 54.94 67.947 63.108 66.207z" fill="#bb84e8" data-fill-palette-color="accent"></path><path d="M87.682 90.213c5.725-3.719 7.262-7.721 10.519-13.807 3.651-6.824 1.257-7.844-2.821-14.596-0.417-0.688-5.842 0.232-6.453 0.904-0.745 0.818-0.248 5.455-0.294 6.496C88.315 76.211 87.998 83.213 87.682 90.213z" fill="#bb84e8" data-fill-palette-color="accent"></path><path d="M86.35 63.447c-3.795 0.809-8.604 0.191-9.572 4.229-1.373 5.736-2.746 11.475-4.12 17.211C81.904 82.678 86.028 71.582 86.35 63.447z" fill="#bb84e8" data-fill-palette-color="accent"></path><path d="M74.666 66.121c-9.148 1.953-8.956 4.611-12.879 13.18C68.007 78.711 73.811 71.941 74.666 66.121z" fill="#bb84e8" data-fill-palette-color="accent"></path></svg></g><g transform="matrix(1,0,0,1,87.42867848082773,0)"><svg width="354.0955078125" viewBox="3.56 -36.04 218.84 36.53" height="59.094921875" data-palette-color="#a437db"><path d="M26.88-5.05L26.88 0 8.11 0 8.11-5.05 26.88-5.05ZM9.86-35.55L9.86 0 3.56 0 3.56-35.55 9.86-35.55ZM24.41-20.8L24.41-15.82 8.11-15.82 8.11-20.8 24.41-20.8ZM26.76-35.55L26.76-30.47 8.11-30.47 8.11-35.55 26.76-35.55ZM42.16 0L34.59 0 34.64-5.05 42.16-5.05Q45.43-5.05 47.63-6.47 49.83-7.89 50.95-10.53 52.07-13.18 52.07-16.87L52.07-16.87 52.07-18.73Q52.07-22.51 50.96-25.12 49.85-27.73 47.68-29.1 45.51-30.47 42.38-30.47L42.38-30.47 34.45-30.47 34.45-35.55 42.38-35.55Q47.14-35.55 50.74-33.45 54.34-31.35 56.37-27.56 58.4-23.78 58.4-18.68L58.4-18.68 58.4-16.87Q58.4-11.74 56.37-7.96 54.34-4.17 50.69-2.09 47.04 0 42.16 0L42.16 0ZM38.11-35.55L38.11 0 31.81 0 31.81-35.55 38.11-35.55ZM84.3-35.55L90.6-35.55 90.6-11.87Q90.6-7.79 88.83-5.04 87.06-2.29 84.03-0.9 81 0.49 77.27 0.49L77.27 0.49Q73.43 0.49 70.42-0.9 67.4-2.29 65.68-5.04 63.96-7.79 63.96-11.87L63.96-11.87 63.96-35.55 70.23-35.55 70.23-11.87Q70.23-9.35 71.09-7.74 71.94-6.13 73.53-5.35 75.12-4.57 77.27-4.57L77.27-4.57Q79.46-4.57 81.03-5.35 82.59-6.13 83.44-7.74 84.3-9.35 84.3-11.87L84.3-11.87 84.3-35.55ZM110.56-30.49L100.02 0 93.4 0 106.78-35.55 110.98-35.55 110.56-30.49ZM119.3 0L108.73-30.49 108.27-35.55 112.49-35.55 125.92 0 119.3 0ZM118.89-13.21L118.89-8.13 99.53-8.13 99.53-13.21 118.89-13.21ZM129.85-35.55L142.47-35.55Q146.55-35.55 149.43-34.33 152.31-33.11 153.84-30.71 155.36-28.32 155.36-24.83L155.36-24.83Q155.36-22.14 154.38-20.12 153.41-18.09 151.61-16.71 149.82-15.33 147.38-14.58L147.38-14.58 145.47-13.6 134.22-13.6 134.17-18.65 142.52-18.65Q144.69-18.65 146.14-19.41 147.6-20.17 148.32-21.48 149.04-22.8 149.04-24.49L149.04-24.49Q149.04-27.22 147.46-28.85 145.89-30.47 142.47-30.47L142.47-30.47 136.15-30.47 136.15 0 129.85 0 129.85-35.55ZM150.04 0L141.74-15.94 148.35-15.97 156.78-0.32 156.78 0 150.04 0ZM171.64 0L164.07 0 164.12-5.05 171.64-5.05Q174.91-5.05 177.11-6.47 179.31-7.89 180.43-10.53 181.55-13.18 181.55-16.87L181.55-16.87 181.55-18.73Q181.55-22.51 180.44-25.12 179.33-27.73 177.16-29.1 174.99-30.47 171.86-30.47L171.86-30.47 163.93-30.47 163.93-35.55 171.86-35.55Q176.62-35.55 180.22-33.45 183.83-31.35 185.85-27.56 187.88-23.78 187.88-18.68L187.88-18.68 187.88-16.87Q187.88-11.74 185.85-7.96 183.83-4.17 180.18-2.09 176.53 0 171.64 0L171.64 0ZM167.59-35.55L167.59 0 161.29 0 161.29-35.55 167.59-35.55ZM222.4-18.68L222.4-16.85Q222.4-11.45 220.54-7.57 218.69-3.69 215.38-1.6 212.07 0.49 207.63 0.49L207.63 0.49Q203.28 0.49 199.92-1.6 196.57-3.69 194.67-7.57 192.78-11.45 192.78-16.85L192.78-16.85 192.78-18.68Q192.78-24.07 194.66-27.97 196.54-31.86 199.89-33.95 203.23-36.04 207.58-36.04L207.58-36.04Q212.02-36.04 215.34-33.95 218.66-31.86 220.53-27.97 222.4-24.07 222.4-18.68L222.4-18.68ZM216.07-16.85L216.07-18.73Q216.07-22.66 215.07-25.35 214.07-28.05 212.17-29.43 210.26-30.81 207.58-30.81L207.58-30.81Q204.94-30.81 203.05-29.43 201.16-28.05 200.14-25.35 199.13-22.66 199.13-18.73L199.13-18.73 199.13-16.85Q199.13-12.92 200.16-10.21 201.18-7.5 203.09-6.1 204.99-4.71 207.63-4.71L207.63-4.71Q210.34-4.71 212.23-6.1 214.12-7.5 215.1-10.21 216.07-12.92 216.07-16.85L216.07-16.85Z" opacity="1" transform="matrix(1,0,0,1,0,0)" fill="#a437db" class="undefined-text-0" data-fill-palette-color="primary"></path></svg></g></svg></g></svg></g></svg></g></svg></g></svg></g><defs></defs></svg><rect width="395.52" height="52.937583547171606" fill="none" stroke="none" visibility="hidden"></rect></g></svg></g></svg>